<svg width="32" height="32" viewBox="0 0 32 32" fill="none" xmlns="http://www.w3.org/2000/svg">
<rect x="2" y="3" width="28" height="26" rx="1" fill="#232629"/>
<path d="M10.008 20.244C10.008 19.8987 10.092 19.656 10.26 19.516C10.428 19.376 10.6287 19.306 10.862 19.306C11.1047 19.306 11.31 19.376 11.478 19.516C11.6553 19.656 11.744 19.8987 11.744 20.244C11.744 20.58 11.6553 20.8227 11.478 20.972C11.31 21.1213 11.1047 21.196 10.862 21.196C10.6287 21.196 10.428 21.1213 10.26 20.972C10.092 20.8227 10.008 20.58 10.008 20.244ZM10.008 14.252C10.008 13.8973 10.092 13.65 10.26 13.51C10.428 13.37 10.6287 13.3 10.862 13.3C11.1047 13.3 11.31 13.37 11.478 13.51C11.6553 13.65 11.744 13.8973 11.744 14.252C11.744 14.588 11.6553 14.8307 11.478 14.98C11.31 15.1293 11.1047 15.204 10.862 15.204C10.6287 15.204 10.428 15.1293 10.26 14.98C10.092 14.8307 10.008 14.588 10.008 14.252ZM17.8141 11.004L14.0901 21H12.8861L16.6101 11.004H17.8141ZM23.0231 11.004L19.2991 21H18.0951L21.8191 11.004H23.0231Z" fill="white"/>
<path opacity="0.3" d="M2 27V28C2 28.554 2.446 29 3 29H29C29.554 29 30 28.554 30 28V27C30 27.554 29.554 28 29 28H3C2.446 28 2 27.554 2 27Z" fill="black"/>
<path opacity="0.3" d="M2 5V4C2 3.446 2.446 3 3 3H29C29.554 3 30 3.446 30 4V5C30 4.446 29.554 4 29 4H3C2.446 4 2 4.446 2 5Z" fill="white"/>
</svg>
